<svg width="122" height="19" viewBox="0 0 122 19" fill="none" xmlns="http://www.w3.org/2000/svg">
<path d="M8.55696 15.2672L12.707 18.0282C13.467 18.5342 14.397 17.7862 14.197 16.8402L13.097 11.6482L16.767 8.1502C17.437 7.5122 17.077 6.3022 16.197 6.2252L11.367 5.7742L9.47696 0.868201C9.13696 -0.0227988 7.97696 -0.0227988 7.63696 0.868201L5.74696 5.7632L0.916957 6.2142C0.0369574 6.2912 -0.323043 7.5012 0.346957 8.1392L4.01696 11.6372L2.91696 16.8292C2.71696 17.7752 3.64696 18.5232 4.40696 18.0172L8.55696 15.2672V15.2672Z" fill="#FAEA48"/>
<path d="M87.1138 15.2672L91.2638 18.0282C92.0238 18.5342 92.9538 17.7862 92.7538 16.8402L91.6538 11.6482L95.3238 8.1502C95.9938 7.5122 95.6338 6.3022 94.7538 6.2252L89.9238 5.7742L88.0338 0.868201C87.6938 -0.0227988 86.5338 -0.0227988 86.1938 0.868201L84.3038 5.7632L79.4738 6.2142C78.5938 6.2912 78.2338 7.5012 78.9038 8.1392L82.5738 11.6372L81.4738 16.8292C81.2738 17.7752 82.2038 18.5232 82.9638 18.0172L87.1138 15.2672V15.2672Z" fill="#FAEA48"/>
<path d="M113.114 15.2672L117.264 18.0282C118.024 18.5342 118.954 17.7862 118.754 16.8402L117.654 11.6482L121.324 8.1502C121.994 7.5122 121.634 6.3022 120.754 6.2252L115.924 5.7742L114.034 0.868201C113.694 -0.0227988 112.534 -0.0227988 112.194 0.868201L110.304 5.7632L105.474 6.2142C104.594 6.2912 104.234 7.5012 104.904 8.1392L108.574 11.6372L107.474 16.8292C107.274 17.7752 108.204 18.5232 108.964 18.0172L113.114 15.2672V15.2672Z" fill="#FAEA48"/>
<path d="M61.1138 15.2672L65.2638 18.0282C66.0238 18.5342 66.9538 17.7862 66.7538 16.8402L65.6538 11.6482L69.3238 8.1502C69.9938 7.5122 69.6338 6.3022 68.7538 6.2252L63.9238 5.7742L62.0338 0.868201C61.6938 -0.0227988 60.5338 -0.0227988 60.1938 0.868201L58.3038 5.7632L53.4738 6.2142C52.5938 6.2912 52.2338 7.5012 52.9038 8.1392L56.5738 11.6372L55.4738 16.8292C55.2738 17.7752 56.2038 18.5232 56.9638 18.0172L61.1138 15.2672V15.2672Z" fill="#FAEA48"/>
<path d="M35.1138 15.2672L39.2638 18.0282C40.0238 18.5342 40.9538 17.7862 40.7538 16.8402L39.6538 11.6482L43.3238 8.1502C43.9938 7.5122 43.6338 6.3022 42.7538 6.2252L37.9238 5.7742L36.0338 0.868201C35.6938 -0.0227988 34.5338 -0.0227988 34.1938 0.868201L32.3038 5.7632L27.4738 6.2142C26.5938 6.2912 26.2338 7.5012 26.9038 8.1392L30.5738 11.6372L29.4738 16.8292C29.2738 17.7752 30.2038 18.5232 30.9638 18.0172L35.1138 15.2672V15.2672Z" fill="#FAEA48"/>
</svg>
